<svg xmlns="http://www.w3.org/2000/svg" fill="none" height="36" viewBox="0 0 36 36" width="36">
  <g fill="#c4c4c4">
    <path d="m11.9998 2h-3.33c-1.84 0-3.32996 1.49-3.32996 3.33s1.48996 3.33 3.32996 3.33h3.33z"/>
    <path d="m11.9998 8.66992h-3.33c-1.84 0-3.32996 1.48998-3.32996 3.32998s1.48996 3.33 3.32996 3.33h3.33z" opacity=".4"/>
    <path d="m11.9998 15.3301h-3.33c-1.84 0-3.32996 1.49-3.32996 3.33s1.48996 3.33 3.32996 3.33 3.33-1.49 3.33-3.33z"/>
    <path d="m12 2h3.33c1.84 0 3.33 1.49 3.33 3.33s-1.49 3.33-3.33 3.33h-3.33z" opacity=".4"/>
    <path d="m15.33 8.66992c1.84 0 3.33 1.48998 3.33 3.32998s-1.49 3.33-3.33 3.33-3.33-1.49-3.33-3.33 1.49-3.32998 3.33-3.32998z"/>
  </g>
</svg>
